<svg width="60" height="49" viewBox="0 0 60 49" fill="none" xmlns="http://www.w3.org/2000/svg">
<path d="M0 0.0190436C0.0690132 0.153856 0.149053 0.282798 0.239311 0.404569C0.368539 0.594953 0.717934 1.19466 0.981176 1.74677C1.6656 3.10325 3.8529 6.91093 3.98692 7.04896C4.2358 7.24886 4.73835 7.28218 5.9014 7.15843C6.85865 7.04896 10.2617 7.01088 23.4142 6.95852C32.3979 6.91093 39.8261 6.85857 39.9314 6.8205C41.3607 6.80203 42.7893 6.88954 44.2055 7.08228C48.5657 7.85333 51.7964 10.5568 52.8207 14.3311C53.0367 15.7068 53.0512 17.1064 52.8638 18.4863C52.0884 23.2458 49.5804 25.9779 45.0814 27.0012C43.7783 27.1637 42.4649 27.2305 41.1519 27.2011C41.1519 27.1725 42.9228 24.1597 45.0909 20.5138C47.2591 16.868 49.0539 13.8171 49.0779 13.76C49.1018 13.7029 44.9473 13.6458 28.4014 13.6458C17.0054 13.6458 7.6723 13.6696 7.6723 13.7076C7.6723 13.7457 8.58169 15.3069 9.67773 17.1726L11.664 20.5662L24.2565 20.5281C31.1822 20.5281 36.8491 20.5281 36.8491 20.5662C36.8491 20.6043 36.045 22.1036 35.0686 23.8979L33.2833 27.1725L24.6299 27.2725C19.8771 27.3248 15.962 27.3867 15.9429 27.4153C15.9237 27.4438 16.7374 28.8431 17.7521 30.5851L19.6091 33.7122L24.3379 33.7408L29.0667 33.7693L26.6975 37.8864C25.3909 40.1472 24.3044 42.0558 24.3044 42.1272C24.3044 42.3175 28.4588 49.0143 28.5498 48.9857C28.6407 48.9572 30.5791 45.5207 32.9579 41.3133L37.2655 33.6979H38.529C39.223 33.6979 40.9221 33.6979 42.358 33.7312C45.1532 33.7598 45.9572 33.6884 47.7425 33.2267C52.3899 32.013 56.7789 28.6908 58.4541 25.1069C59.5103 22.7656 60.0255 20.2186 59.9617 17.6533C59.9617 12.7224 58.253 8.19602 55.1755 4.98329C52.9045 2.72703 50.0197 1.18018 46.8762 0.533073C44.3826 -1.19791e-06 45.9189 0.0333203 21.9352 0.00952237C9.88832 -0.009516 0 5.22239e-06 0 0.0190436Z" fill="white"/>
</svg>
