<svg width="13" height="16" viewBox="0 0 13 16" fill="none" xmlns="http://www.w3.org/2000/svg">
<path d="M2.63529 6.30588C2.63529 6.04612 2.84612 5.83529 3.10588 5.83529H8.94118C9.06598 5.83529 9.18568 5.88487 9.27393 5.97313C9.36218 6.06138 9.41176 6.18107 9.41176 6.30588C9.41176 6.43069 9.36218 6.55039 9.27393 6.63864C9.18568 6.72689 9.06598 6.77647 8.94118 6.77647H3.10588C2.84612 6.77647 2.63529 6.56565 2.63529 6.30588ZM3.48235 0C3.35754 0 3.23785 0.0495797 3.1496 0.137832C3.06134 0.226085 3.01176 0.34578 3.01176 0.470588C3.01176 0.595396 3.06134 0.715092 3.1496 0.803344C3.23785 0.891597 3.35754 0.941176 3.48235 0.941176H3.76471V1.69412H2.35294C1.7289 1.69412 1.13042 1.94202 0.68916 2.38328C0.247898 2.82454 0 3.42302 0 4.04706V12.5176C-1.49871e-06 13.1271 0.236461 13.7128 0.659606 14.1513C1.08275 14.5899 1.65956 14.8472 2.26861 14.8691C2.26211 14.9005 2.25883 14.9326 2.25882 14.9647V15.5294C2.25882 15.6542 2.3084 15.7739 2.39666 15.8622C2.48491 15.9504 2.6046 16 2.72941 16C2.85422 16 2.97392 15.9504 3.06217 15.8622C3.15042 15.7739 3.2 15.6542 3.2 15.5294V14.9647C3.2 14.9323 3.19661 14.9007 3.19059 14.8706H8.66823C8.66221 14.9007 8.65882 14.9323 8.65882 14.9647V15.5294C8.65882 15.5912 8.67099 15.6524 8.69464 15.7095C8.71829 15.7666 8.75296 15.8185 8.79665 15.8622C8.84035 15.9059 8.89223 15.9405 8.94933 15.9642C9.00642 15.9878 9.06761 16 9.12941 16C9.19121 16 9.2524 15.9878 9.3095 15.9642C9.36659 15.9405 9.41847 15.9059 9.46217 15.8622C9.50587 15.8185 9.54053 15.7666 9.56418 15.7095C9.58783 15.6524 9.6 15.5912 9.6 15.5294V14.9647C9.6 14.9323 9.59661 14.9007 9.59059 14.8706H9.69412C10.3182 14.8706 10.9166 14.6227 11.3579 14.1814C11.7992 13.7402 12.0471 13.1417 12.0471 12.5176V4.04706C12.0471 3.42302 11.7992 2.82454 11.3579 2.38328C10.9166 1.94202 10.3182 1.69412 9.69412 1.69412H8.09412V0.941176H8.5647C8.68951 0.941176 8.80921 0.891597 8.89746 0.803344C8.98571 0.715092 9.03529 0.595396 9.03529 0.470588C9.03529 0.34578 8.98571 0.226085 8.89746 0.137832C8.80921 0.0495797 8.68951 0 8.5647 0H3.48235ZM7.15294 0.941176V1.69412H4.70588V0.941176H7.15294ZM2.35294 2.63529H9.69412C10.0685 2.63529 10.4276 2.78403 10.6924 3.04879C10.9571 3.31355 11.1059 3.67264 11.1059 4.04706V12.5176C11.1059 12.8921 10.9571 13.2512 10.6924 13.5159C10.4276 13.7807 10.0685 13.9294 9.69412 13.9294H2.35294C1.97852 13.9294 1.61943 13.7807 1.35467 13.5159C1.08992 13.2512 0.941176 12.8921 0.941176 12.5176V4.04706C0.941176 3.67264 1.08992 3.31355 1.35467 3.04879C1.61943 2.78403 1.97852 2.63529 2.35294 2.63529Z" fill="#050A30"/>
</svg>
