<svg width="94" height="76" viewBox="0 0 94 76" fill="none" xmlns="http://www.w3.org/2000/svg">
<path d="M38.2996 0.300049C35.9922 0.300049 33.7793 1.21665 32.1478 2.84822C30.5162 4.47979 29.5996 6.69267 29.5996 9.00005V11.9H9.29961C6.99223 11.9 4.77935 12.8167 3.14778 14.4482C1.51621 16.0798 0.599609 18.2927 0.599609 20.6L0.599609 67C0.599609 69.3074 1.51621 71.5203 3.14778 73.1519C4.77935 74.7834 6.99223 75.7 9.29961 75.7H84.6996C87.007 75.7 89.2199 74.7834 90.8514 73.1519C92.483 71.5203 93.3996 69.3074 93.3996 67V20.6C93.3996 18.2927 92.483 16.0798 90.8514 14.4482C89.2199 12.8167 87.007 11.9 84.6996 11.9H64.3996V9.00005C64.3996 6.69267 63.483 4.47979 61.8514 2.84822C60.2199 1.21665 58.007 0.300049 55.6996 0.300049H38.2996ZM38.2996 6.10005H55.6996C56.4687 6.10005 57.2064 6.40558 57.7502 6.94944C58.2941 7.49329 58.5996 8.23092 58.5996 9.00005V11.9H35.3996V9.00005C35.3996 8.23092 35.7051 7.49329 36.249 6.94944C36.7929 6.40558 37.5305 6.10005 38.2996 6.10005V6.10005ZM49.2384 46.2012L87.5996 35.9758V67C87.5996 67.7692 87.2941 68.5068 86.7502 69.0507C86.2064 69.5945 85.4687 69.9 84.6996 69.9H9.29961C8.53048 69.9 7.79285 69.5945 7.249 69.0507C6.70514 68.5068 6.39961 67.7692 6.39961 67V35.97L44.7608 46.2012C46.2278 46.5919 47.7714 46.5919 49.2384 46.2012V46.2012ZM9.29961 17.7H84.6996C85.4687 17.7 86.2064 18.0056 86.7502 18.5494C87.2941 19.0933 87.5996 19.8309 87.5996 20.6V29.9728L47.7478 40.5984C47.2576 40.7294 46.7416 40.7294 46.2514 40.5984L6.39961 29.9728V20.6C6.39961 19.8309 6.70514 19.0933 7.249 18.5494C7.79285 18.0056 8.53048 17.7 9.29961 17.7V17.7Z" fill="#050A30"/>
</svg>
