<svg width="16" height="15" viewBox="0 0 16 15" fill="none" xmlns="http://www.w3.org/2000/svg">
<path fill-rule="evenodd" clip-rule="evenodd" d="M3.5 0.5C3.77614 0.5 4 0.723858 4 1V2H6V1C6 0.723858 6.22386 0.5 6.5 0.5C6.77614 0.5 7 0.723858 7 1V2H9V1C9 0.723858 9.22386 0.5 9.5 0.5C9.77614 0.5 10 0.723858 10 1V2H12V1C12 0.723858 12.2239 0.5 12.5 0.5C12.7761 0.5 13 0.723858 13 1V2H15C15.2761 2 15.5 2.22386 15.5 2.5V14.5C15.5 14.7761 15.2761 15 15 15H1C0.723858 15 0.5 14.7761 0.5 14.5V2.5C0.5 2.22386 0.723858 2 1 2H3V1C3 0.723858 3.22386 0.5 3.5 0.5ZM3 3H1.5V6.5H14.5V3H13V4C13 4.27614 12.7761 4.5 12.5 4.5C12.2239 4.5 12 4.27614 12 4V3H10V4C10 4.27614 9.77614 4.5 9.5 4.5C9.22386 4.5 9 4.27614 9 4V3H7V4C7 4.27614 6.77614 4.5 6.5 4.5C6.22386 4.5 6 4.27614 6 4V3H4V4C4 4.27614 3.77614 4.5 3.5 4.5C3.22386 4.5 3 4.27614 3 4V3ZM14.5 7.5H1.5V14H14.5V7.5Z" fill="#050A30"/>
</svg>
