<svg width="30" height="29" viewBox="0 0 30 29" fill="none" xmlns="http://www.w3.org/2000/svg">
<path fill-rule="evenodd" clip-rule="evenodd" d="M6 0C6.55228 0 7 0.447715 7 1V3H11V1C11 0.447715 11.4477 0 12 0C12.5523 0 13 0.447715 13 1V3H17V1C17 0.447715 17.4477 0 18 0C18.5523 0 19 0.447715 19 1V3H23V1C23 0.447715 23.4477 0 24 0C24.5523 0 25 0.447715 25 1V3H29C29.5523 3 30 3.44772 30 4V28C30 28.5523 29.5523 29 29 29H1C0.447715 29 0 28.5523 0 28V4C0 3.44772 0.447715 3 1 3H5V1C5 0.447715 5.44772 0 6 0ZM5 5H2V12H28V5H25V7C25 7.55228 24.5523 8 24 8C23.4477 8 23 7.55228 23 7V5H19V7C19 7.55228 18.5523 8 18 8C17.4477 8 17 7.55228 17 7V5H13V7C13 7.55228 12.5523 8 12 8C11.4477 8 11 7.55228 11 7V5H7V7C7 7.55228 6.55228 8 6 8C5.44772 8 5 7.55228 5 7V5ZM28 14H2V27H28V14Z" fill="#A9A9A9"/>
</svg>
