<svg width="25" height="24" viewBox="0 0 25 24" fill="none" xmlns="http://www.w3.org/2000/svg">
<path fill-rule="evenodd" clip-rule="evenodd" d="M19.7222 9.63889V3.41667C19.7215 2.70964 19.4404 2.03177 18.9404 1.53183C18.4405 1.03188 17.7626 0.750706 17.0556 0.75H6.38891C5.68189 0.750706 5.00402 1.03188 4.50408 1.53183C4.00413 2.03177 3.72295 2.70964 3.72225 3.41667V13.1944H5.50002V3.41667C5.50002 3.18092 5.59368 2.95483 5.76037 2.78813C5.92707 2.62143 6.15317 2.52778 6.38891 2.52778H17.0556C17.2913 2.52778 17.5174 2.62143 17.6841 2.78813C17.8508 2.95483 17.9445 3.18092 17.9445 3.41667V9.63889L14.7569 6.60422L13.5 7.86111L18.8334 13.1944L24.1667 7.86111L22.9098 6.60422L19.7222 9.63889ZM4.61113 23.8611C3.73211 23.8611 2.87282 23.6005 2.14193 23.1121C1.41105 22.6237 0.841392 21.9296 0.505002 21.1175C0.168613 20.3054 0.0805979 19.4117 0.252088 18.5496C0.423578 17.6875 0.84687 16.8955 1.46844 16.274C2.09 15.6524 2.88193 15.2291 3.74407 15.0576C4.6062 14.8861 5.49983 14.9742 6.31195 15.3105C7.12406 15.6469 7.81819 16.2166 8.30655 16.9475C8.79492 17.6784 9.05558 18.5376 9.05558 19.4167C9.05417 20.595 8.58546 21.7246 7.75227 22.5578C6.91908 23.391 5.78944 23.8597 4.61113 23.8611ZM4.61113 16.75C4.08372 16.75 3.56814 16.9064 3.12961 17.1994C2.69108 17.4924 2.34929 17.9089 2.14745 18.3962C1.94562 18.8835 1.89281 19.4196 1.99571 19.9369C2.0986 20.4542 2.35258 20.9293 2.72552 21.3023C3.09846 21.6752 3.57361 21.9292 4.09089 22.0321C4.60818 22.135 5.14435 22.0822 5.63162 21.8804C6.11889 21.6785 6.53537 21.3367 6.82839 20.8982C7.1214 20.4597 7.2778 19.9441 7.2778 19.4167C7.27709 18.7096 6.99592 18.0318 6.49597 17.5318C5.99603 17.0319 5.31816 16.7507 4.61113 16.75ZM18.8333 23.8611C17.9543 23.8611 17.095 23.6005 16.3641 23.1121C15.6333 22.6237 15.0636 21.9296 14.7272 21.1175C14.3908 20.3054 14.3028 19.4117 14.4743 18.5496C14.6458 17.6875 15.0691 16.8955 15.6906 16.274C16.3122 15.6524 17.1041 15.2291 17.9663 15.0576C18.8284 14.8861 19.722 14.9742 20.5342 15.3105C21.3463 15.6469 22.0404 16.2166 22.5288 16.9475C23.0171 17.6784 23.2778 18.5376 23.2778 19.4167C23.2764 20.595 22.8077 21.7246 21.9745 22.5578C21.1413 23.391 20.0117 23.8597 18.8333 23.8611ZM18.8333 16.75C18.3059 16.75 17.7904 16.9064 17.3518 17.1994C16.9133 17.4924 16.5715 17.9089 16.3697 18.3962C16.1678 18.8835 16.115 19.4196 16.2179 19.9369C16.3208 20.4542 16.5748 20.9293 16.9477 21.3023C17.3207 21.6752 17.7958 21.9292 18.3131 22.0321C18.8304 22.135 19.3666 22.0822 19.8538 21.8804C20.3411 21.6785 20.7576 21.3367 21.0506 20.8982C21.3436 20.4597 21.5 19.9441 21.5 19.4167C21.4993 18.7096 21.2181 18.0318 20.7182 17.5318C20.2182 17.0319 19.5404 16.7507 18.8333 16.75Z" fill="#050A30"/>
</svg>
