<svg width="32" height="32" viewBox="0 0 32 32" fill="none" xmlns="http://www.w3.org/2000/svg">
<path d="M16 32C12.8355 32 9.74207 31.0616 7.11088 29.3035C4.4797 27.5454 2.42894 25.0466 1.21793 22.1229C0.00693253 19.1993 -0.309921 15.9823 0.307443 12.8786C0.924806 9.77487 2.44866 6.92394 4.6863 4.6863C6.92394 2.44866 9.77487 0.924806 12.8786 0.307443C15.9823 -0.309921 19.1993 0.00693253 22.1229 1.21793C25.0466 2.42894 27.5454 4.4797 29.3035 7.11088C31.0616 9.74207 32 12.8355 32 16C32 20.2435 30.3143 24.3131 27.3137 27.3137C24.3131 30.3143 20.2435 32 16 32ZM16 2.28572C13.2876 2.28572 10.6361 3.09005 8.38076 4.59699C6.12545 6.10394 4.36766 8.24582 3.32966 10.7518C2.29166 13.2577 2.02007 16.0152 2.54924 18.6755C3.07841 21.3358 4.38456 23.7795 6.30254 25.6975C8.22052 27.6154 10.6642 28.9216 13.3245 29.4508C15.9848 29.9799 18.7423 29.7084 21.2482 28.6703C23.7542 27.6323 25.8961 25.8746 27.403 23.6193C28.91 21.364 29.7143 18.7124 29.7143 16C29.7143 12.3628 28.2694 8.87447 25.6975 6.30254C23.1255 3.73061 19.6373 2.28572 16 2.28572Z" fill="#A9A9A9"/>
<path d="M21.2457 22.8572L14.8571 16.4686V5.71436H17.1429V15.5201L22.8571 21.2458L21.2457 22.8572Z" fill="#A9A9A9"/>
</svg>
