<svg width="32" height="32" viewBox="0 0 32 32" fill="none" xmlns="http://www.w3.org/2000/svg">
<path d="M19.9964 2.7154C19.7743 2.49354 19.4732 2.36892 19.1592 2.36892C18.8453 2.36892 18.5442 2.49354 18.322 2.7154L2.7154 18.322C2.49354 18.5442 2.36892 18.8453 2.36892 19.1592C2.36892 19.4732 2.49354 19.7743 2.7154 19.9964L4.40401 21.6835C5.22966 21.2222 6.18329 21.043 7.12007 21.173C8.05685 21.3031 8.9256 21.7353 9.59435 22.4041C10.2631 23.0728 10.6953 23.9416 10.8254 24.8783C10.9555 25.8151 10.7762 26.7688 10.3149 27.5944L12.0036 29.2846C12.1136 29.3947 12.2442 29.482 12.388 29.5416C12.5318 29.6012 12.6859 29.6319 12.8416 29.6319C12.9972 29.6319 13.1513 29.6012 13.2951 29.5416C13.4389 29.482 13.5695 29.3947 13.6795 29.2846L29.2846 13.6795C29.5065 13.4574 29.6311 13.1563 29.6311 12.8423C29.6311 12.5284 29.5065 12.2273 29.2846 12.0051L27.5944 10.3134C26.7688 10.7747 25.8151 10.9539 24.8783 10.8238C23.9416 10.6938 23.0728 10.2615 22.4041 9.59278C21.7353 8.92402 21.3031 8.05527 21.173 7.11849C21.043 6.18171 21.2222 5.22808 21.6835 4.40243L19.9964 2.7154ZM16.6476 1.041C16.9777 0.710963 17.3695 0.449163 17.8007 0.270547C18.2319 0.0919321 18.6941 0 19.1608 0C19.6276 0 20.0897 0.0919321 20.5209 0.270547C20.9522 0.449163 21.344 0.710963 21.674 1.041L23.5237 2.89231C24.3309 3.69792 24.1872 4.83051 23.7796 5.51448C23.5556 5.89178 23.4636 6.33295 23.5182 6.76834C23.5729 7.20372 23.7709 7.60851 24.0812 7.91879C24.3915 8.22906 24.7963 8.42715 25.2317 8.48176C25.667 8.53637 26.1082 8.4444 26.4855 8.22037C27.1695 7.81441 28.3021 7.66909 29.1077 8.47627L30.959 10.3292C31.289 10.6592 31.5508 11.051 31.7295 11.4822C31.9081 11.9134 32 12.3756 32 12.8423C32 13.3091 31.9081 13.7713 31.7295 14.2025C31.5508 14.6337 31.289 15.0255 30.959 15.3555L15.3555 30.959C15.0255 31.289 14.6337 31.5508 14.2025 31.7295C13.7713 31.9081 13.3091 32 12.8423 32C12.3756 32 11.9134 31.9081 11.4822 31.7295C11.051 31.5508 10.6592 31.289 10.3292 30.959L8.47785 29.1093C7.67225 28.3037 7.81441 27.1695 8.22195 26.4871C8.44598 26.1098 8.53795 25.6686 8.48334 25.2332C8.42873 24.7979 8.23064 24.3931 7.92037 24.0828C7.61009 23.7725 7.2053 23.5744 6.76992 23.5198C6.33453 23.4652 5.89336 23.5572 5.51606 23.7812C4.83209 24.1872 3.6995 24.3309 2.89389 23.5237L1.041 21.6724C0.710963 21.3424 0.449163 20.9506 0.270547 20.5194C0.0919321 20.0882 0 19.626 0 19.1592C0 18.6925 0.0919321 18.2303 0.270547 17.7991C0.449163 17.3679 0.710963 16.9761 1.041 16.6461L16.6476 1.041Z" fill="#A9A9A9"/>
</svg>
