<svg width="11" height="16" viewBox="0 0 11 16" fill="none" xmlns="http://www.w3.org/2000/svg">
<path d="M0.571429 0C0.722981 0 0.868326 0.0602039 0.97549 0.167368C1.08265 0.274531 1.14286 0.419876 1.14286 0.571429V4C1.14267 4.35466 1.25249 4.70064 1.45718 4.99028C1.66186 5.27991 1.95134 5.49892 2.28571 5.61714V0.571429C2.28571 0.419876 2.34592 0.274531 2.45308 0.167368C2.56025 0.0602039 2.70559 0 2.85714 0C3.0087 0 3.15404 0.0602039 3.2612 0.167368C3.36837 0.274531 3.42857 0.419876 3.42857 0.571429V5.61714C3.76295 5.49892 4.05242 5.27991 4.25711 4.99028C4.4618 4.70064 4.57161 4.35466 4.57143 4V0.571429C4.57143 0.419876 4.63163 0.274531 4.7388 0.167368C4.84596 0.0602039 4.99131 0 5.14286 0C5.29441 0 5.43975 0.0602039 5.54692 0.167368C5.65408 0.274531 5.71429 0.419876 5.71429 0.571429V4C5.71442 4.65866 5.48698 5.29714 5.07046 5.80737C4.65394 6.31761 4.07392 6.66827 3.42857 6.8V15.4286C3.42857 15.5801 3.36837 15.7255 3.2612 15.8326C3.15404 15.9398 3.0087 16 2.85714 16C2.70559 16 2.56025 15.9398 2.45308 15.8326C2.34592 15.7255 2.28571 15.5801 2.28571 15.4286V6.8C1.64036 6.66827 1.06035 6.31761 0.643825 5.80737C0.227305 5.29714 -0.000134372 4.65866 5.95591e-08 4V0.571429C5.95591e-08 0.419876 0.0602041 0.274531 0.167368 0.167368C0.274531 0.0602039 0.419876 0 0.571429 0ZM8.54743 1.69029C8.72914 1.50743 8.93371 1.36686 9.14286 1.27429V6.85714H8V2.85714C8 2.472 8.19886 2.03771 8.54743 1.69029ZM9.14286 8V15.4286C9.14286 15.5801 9.20306 15.7255 9.31022 15.8326C9.41739 15.9398 9.56273 16 9.71429 16C9.86584 16 10.0112 15.9398 10.1183 15.8326C10.2255 15.7255 10.2857 15.5801 10.2857 15.4286V0.571429C10.2857 0.419876 10.2255 0.274531 10.1183 0.167368C10.0112 0.0602039 9.86584 0 9.71429 0C8.95657 0 8.248 0.372571 7.73829 0.881143C7.22971 1.39086 6.85714 2.09943 6.85714 2.85714V7.42857C6.85714 7.58012 6.91735 7.72547 7.02451 7.83263C7.13167 7.9398 7.27702 8 7.42857 8H9.14286Z" fill="#050A30"/>
</svg>
