<svg width="16" height="14" viewBox="0 0 16 14" fill="none" xmlns="http://www.w3.org/2000/svg">
<path d="M6.5 0.5C6.10218 0.5 5.72064 0.658035 5.43934 0.93934C5.15804 1.22064 5 1.60218 5 2V2.5H1.5C1.10218 2.5 0.720644 2.65804 0.43934 2.93934C0.158035 3.22064 0 3.60218 0 4L0 12C0 12.3978 0.158035 12.7794 0.43934 13.0607C0.720644 13.342 1.10218 13.5 1.5 13.5H14.5C14.8978 13.5 15.2794 13.342 15.5607 13.0607C15.842 12.7794 16 12.3978 16 12V4C16 3.60218 15.842 3.22064 15.5607 2.93934C15.2794 2.65804 14.8978 2.5 14.5 2.5H11V2C11 1.60218 10.842 1.22064 10.5607 0.93934C10.2794 0.658035 9.89782 0.5 9.5 0.5H6.5ZM6.5 1.5H9.5C9.63261 1.5 9.75979 1.55268 9.85355 1.64645C9.94732 1.74021 10 1.86739 10 2V2.5H6V2C6 1.86739 6.05268 1.74021 6.14645 1.64645C6.24021 1.55268 6.36739 1.5 6.5 1.5ZM8.386 8.414L15 6.651V12C15 12.1326 14.9473 12.2598 14.8536 12.3536C14.7598 12.4473 14.6326 12.5 14.5 12.5H1.5C1.36739 12.5 1.24021 12.4473 1.14645 12.3536C1.05268 12.2598 1 12.1326 1 12V6.65L7.614 8.414C7.86693 8.48135 8.13307 8.48135 8.386 8.414ZM1.5 3.5H14.5C14.6326 3.5 14.7598 3.55268 14.8536 3.64645C14.9473 3.74021 15 3.86739 15 4V5.616L8.129 7.448C8.04448 7.47057 7.95552 7.47057 7.871 7.448L1 5.616V4C1 3.86739 1.05268 3.74021 1.14645 3.64645C1.24021 3.55268 1.36739 3.5 1.5 3.5Z" fill="#050A30"/>
</svg>
