<svg width="32" height="32" viewBox="0 0 32 32" fill="none" xmlns="http://www.w3.org/2000/svg">
<path fill-rule="evenodd" clip-rule="evenodd" d="M29.5989 6.85714H32V9.14286H29.5989C29.4515 9.85826 29.1674 10.5385 28.7623 11.1463L30.4651 12.8491L28.8491 14.4651L27.1463 12.7623C26.5385 13.1674 25.8583 13.4515 25.1429 13.5989V16H22.8571V13.5989C22.1417 13.4515 21.4615 13.1674 20.8537 12.7623L19.1509 14.4651L17.5349 12.8491L19.2377 11.1463C18.8326 10.5385 18.5485 9.85826 18.4011 9.14286H16V6.85714H18.4011C18.5485 6.14174 18.8326 5.4615 19.2377 4.85371L17.5349 3.15086L19.1509 1.53486L20.8537 3.23771C21.4615 2.83258 22.1417 2.54853 22.8571 2.40114V0H25.1429V2.40114C25.8583 2.54853 26.5385 2.83258 27.1463 3.23771L28.8491 1.53486L30.4651 3.15086L28.7623 4.85371C29.1674 5.4615 29.4515 6.14174 29.5989 6.85714ZM22.0952 10.8508C22.659 11.2275 23.3219 11.4286 24 11.4286C24.909 11.4277 25.7806 11.0661 26.4234 10.4234C27.0662 9.78058 27.4277 8.90904 27.4286 8C27.4286 7.32189 27.2275 6.65901 26.8508 6.09519C26.474 5.53136 25.9385 5.09191 25.3121 4.83241C24.6856 4.57291 23.9962 4.50502 23.3311 4.63731C22.666 4.7696 22.0551 5.09614 21.5756 5.57563C21.0961 6.05513 20.7696 6.66604 20.6373 7.33112C20.505 7.9962 20.5729 8.68557 20.8324 9.31206C21.0919 9.93855 21.5314 10.474 22.0952 10.8508ZM29.7143 22.8571V17.1428H32V22.8571C32 23.4633 31.7592 24.0447 31.3305 24.4734C30.9019 24.902 30.3205 25.1428 29.7143 25.1428H20.5714V29.7143H25.1429V32H6.85714V29.7143H11.4286V25.1428H2.28571C1.67951 25.1428 1.09812 24.902 0.66947 24.4734C0.240816 24.0447 0 23.4633 0 22.8571V4.57142C0 3.96521 0.240816 3.38383 0.66947 2.95518C1.09812 2.52652 1.67951 2.28571 2.28571 2.28571H13.7143V4.57142H2.28571V22.8571H29.7143ZM13.7143 25.1428V29.7143H18.2857V25.1428H13.7143Z" fill="white"/>
</svg>
