<svg width="16" height="16" viewBox="0 0 16 16" fill="none" xmlns="http://www.w3.org/2000/svg">
<path d="M8 16C5.87827 16 3.84344 15.1571 2.34315 13.6569C0.842855 12.1566 0 10.1217 0 8C0 5.87827 0.842855 3.84344 2.34315 2.34315C3.84344 0.842855 5.87827 0 8 0C10.1217 0 12.1566 0.842855 13.6569 2.34315C15.1571 3.84344 16 5.87827 16 8C16 10.1217 15.1571 12.1566 13.6569 13.6569C12.1566 15.1571 10.1217 16 8 16ZM8 15.1579C9.37997 15.1579 10.7305 14.7589 11.889 14.0091C13.0475 13.2593 13.9646 12.1907 14.5298 10.9317C15.095 9.67283 15.2843 8.27737 15.0748 6.91339C14.8653 5.54941 14.266 4.27506 13.3491 3.24379L3.24379 13.3491C4.5528 14.5164 6.2461 15.1604 8 15.1579ZM8 0.842105C6.62029 0.842079 5.26997 1.2408 4.11158 1.99028C2.95319 2.73976 2.03608 3.80806 1.47066 5.06659C0.905231 6.32512 0.71558 7.72024 0.924532 9.08403C1.13348 10.4478 1.73213 11.7222 2.64842 12.7537L12.7537 2.64842C11.445 1.48258 9.7527 0.83955 8 0.842105Z" fill="#050A30"/>
</svg>
