<svg width="28" height="32" viewBox="0 0 28 32" fill="none" xmlns="http://www.w3.org/2000/svg">
<path fill-rule="evenodd" clip-rule="evenodd" d="M17.7071 2.29289C17.5196 2.10536 17.2652 2 17 2H11C10.7348 2 10.4804 2.10536 10.2929 2.29289C10.1054 2.48043 10 2.73478 10 3V5C10 5.26522 10.1054 5.51957 10.2929 5.70711C10.4804 5.89464 10.7348 6 11 6H17C17.2652 6 17.5196 5.89464 17.7071 5.70711C17.8946 5.51957 18 5.26522 18 5V3C18 2.73478 17.8946 2.48043 17.7071 2.29289ZM8.87868 0.87868C9.44129 0.31607 10.2044 0 11 0H17C17.7956 0 18.5587 0.31607 19.1213 0.87868C19.6839 1.44129 20 2.20435 20 3V5C20 5.79565 19.6839 6.55871 19.1213 7.12132C18.5587 7.68393 17.7956 8 17 8H11C10.2044 8 9.44129 7.68393 8.87868 7.12132C8.31607 6.55871 8 5.79565 8 5V3C8 2.20435 8.31607 1.44129 8.87868 0.87868ZM6 3H4C2.93913 3 1.92172 3.42143 1.17157 4.17157C0.421427 4.92172 0 5.93913 0 7V28C0 29.0609 0.421427 30.0783 1.17157 30.8284C1.92172 31.5786 2.93913 32 4 32H24C25.0609 32 26.0783 31.5786 26.8284 30.8284C27.5786 30.0783 28 29.0609 28 28V7C28 5.93913 27.5786 4.92172 26.8284 4.17157C26.0783 3.42143 25.0609 3 24 3H22V5H24C24.5304 5 25.0391 5.21071 25.4142 5.58579C25.7893 5.96086 26 6.46957 26 7V28C26 28.5304 25.7893 29.0391 25.4142 29.4142C25.0391 29.7893 24.5304 30 24 30H4C3.46957 30 2.96086 29.7893 2.58579 29.4142C2.21071 29.0391 2 28.5304 2 28V7C2 6.46957 2.21071 5.96086 2.58579 5.58579C2.96086 5.21071 3.46957 5 4 5H6V3ZM19.708 14.292C19.8012 14.3848 19.8751 14.4952 19.9255 14.6167C19.9759 14.7382 20.0018 14.8684 20.0018 15C20.0018 15.1315 19.9759 15.2617 19.9255 15.3832C19.8751 15.5047 19.8012 15.6151 19.708 15.708L13.708 21.708C13.6152 21.8011 13.5048 21.875 13.3833 21.9254C13.2618 21.9758 13.1316 22.0017 13 22.0017C12.8685 22.0017 12.7383 21.9758 12.6168 21.9254C12.4953 21.875 12.3849 21.8011 12.292 21.708L9.29204 18.708C9.19907 18.615 9.12531 18.5046 9.075 18.3831C9.02468 18.2616 8.99878 18.1314 8.99878 18C8.99878 17.8685 9.02468 17.7383 9.075 17.6168C9.12531 17.4953 9.19907 17.3849 9.29204 17.292C9.47982 17.1042 9.73449 16.9987 10 16.9987C10.1315 16.9987 10.2617 17.0246 10.3832 17.0749C10.5047 17.1252 10.6151 17.199 10.708 17.292L13 19.586L18.292 14.292C18.3849 14.1988 18.4953 14.1249 18.6168 14.0745C18.7383 14.0241 18.8685 13.9982 19 13.9982C19.1316 13.9982 19.2618 14.0241 19.3833 14.0745C19.5048 14.1249 19.6152 14.1988 19.708 14.292Z" fill="#050A30"/>
</svg>
