<svg width="23" height="31" viewBox="0 0 23 31" fill="none" xmlns="http://www.w3.org/2000/svg">
<path fill-rule="evenodd" clip-rule="evenodd" d="M14.147 3.14722C13.2367 2.53895 12.1664 2.21429 11.0715 2.21429C9.60337 2.21429 8.19534 2.79751 7.1572 3.83566C6.11905 4.87381 5.53582 6.28184 5.53582 7.75C5.53582 8.84486 5.86049 9.91513 6.46876 10.8255C7.07703 11.7358 7.94159 12.4453 8.95311 12.8643C9.96463 13.2833 11.0777 13.3929 12.1515 13.1793C13.2253 12.9658 14.2117 12.4385 14.9859 11.6643C15.7601 10.8902 16.2873 9.90379 16.5009 8.82996C16.7145 7.75614 16.6049 6.64309 16.1859 5.63157C15.7669 4.62005 15.0574 3.75549 14.147 3.14722ZM6.76587 1.30611C8.04035 0.45453 9.53873 0 11.0715 0C13.127 0 15.0982 0.816515 16.5516 2.26992C18.005 3.72333 18.8215 5.69457 18.8215 7.75C18.8215 9.2828 18.367 10.7812 17.5154 12.0557C16.6638 13.3301 15.4535 14.3235 14.0373 14.9101C12.6212 15.4966 11.0629 15.6501 9.55959 15.3511C8.05623 15.052 6.67532 14.3139 5.59146 13.2301C4.5076 12.1462 3.76949 10.7653 3.47045 9.26195C3.17142 7.7586 3.32489 6.20033 3.91147 4.7842C4.49805 3.36808 5.49139 2.15769 6.76587 1.30611ZM19.9286 30.9999H22.1429V25.4642C22.1429 23.4088 21.3263 21.4376 19.8729 19.9842C18.4195 18.5308 16.4483 17.7142 14.3929 17.7142H7.75C5.69457 17.7142 3.72333 18.5308 2.26992 19.9842C0.816515 21.4376 0 23.4088 0 25.4642V30.9999H2.21429V25.4642C2.21429 23.9961 2.79751 22.588 3.83566 21.5499C4.87381 20.5117 6.28184 19.9285 7.75 19.9285H14.3929C15.861 19.9285 17.269 20.5117 18.3072 21.5499C19.3453 22.588 19.9286 23.9961 19.9286 25.4642V30.9999Z" fill="#A9A9A9"/>
</svg>
