<svg width="20" height="32" viewBox="0 0 20 32" fill="none" xmlns="http://www.w3.org/2000/svg">
<path d="M8 24C7.73478 24 7.48043 24.1054 7.29289 24.2929C7.10536 24.4804 7 24.7348 7 25C7 25.2652 7.10536 25.5196 7.29289 25.7071C7.48043 25.8946 7.73478 26 8 26H12C12.2652 26 12.5196 25.8946 12.7071 25.7071C12.8946 25.5196 13 25.2652 13 25C13 24.7348 12.8946 24.4804 12.7071 24.2929C12.5196 24.1054 12.2652 24 12 24H8Z" fill="#A9A9A9"/>
<path d="M4 0C2.93913 0 1.92172 0.421427 1.17157 1.17157C0.421427 1.92172 0 2.93913 0 4V28C0 29.0609 0.421427 30.0783 1.17157 30.8284C1.92172 31.5786 2.93913 32 4 32H16C17.0609 32 18.0783 31.5786 18.8284 30.8284C19.5786 30.0783 20 29.0609 20 28V4C20 2.93913 19.5786 1.92172 18.8284 1.17157C18.0783 0.421427 17.0609 0 16 0H4ZM2 4C2 3.46957 2.21071 2.96086 2.58579 2.58579C2.96086 2.21071 3.46957 2 4 2H16C16.5304 2 17.0391 2.21071 17.4142 2.58579C17.7893 2.96086 18 3.46957 18 4V28C18 28.5304 17.7893 29.0391 17.4142 29.4142C17.0391 29.7893 16.5304 30 16 30H4C3.46957 30 2.96086 29.7893 2.58579 29.4142C2.21071 29.0391 2 28.5304 2 28V4Z" fill="#A9A9A9"/>
</svg>
