<svg width="34" height="34" viewBox="0 0 34 34" fill="none" xmlns="http://www.w3.org/2000/svg">
<path d="M1.16667 30.6666C1.16667 30.1143 1.61439 29.6666 2.16667 29.6666H31.8333C32.3856 29.6666 32.8333 30.1143 32.8333 30.6666V31.9999C32.8333 32.5522 32.3856 32.9999 31.8333 32.9999H2.16667C1.61439 32.9999 1.16667 32.5522 1.16667 31.9999V30.6666ZM13.1333 20.1166L20.3833 22.0499L29.2333 24.4166C30.5667 24.7666 31.9333 23.9833 32.3 22.6499C32.65 21.3333 31.8667 19.9499 30.5333 19.5833L22.2192 17.3599C21.8859 17.2707 21.6221 17.0161 21.5212 16.6861L17.247 2.70194C17.1453 2.36932 16.8781 2.11342 16.5414 2.02619L15.1175 1.65729C14.4843 1.49325 13.8667 1.97124 13.8667 2.62533V13.8305C13.8667 14.4879 13.2432 14.9664 12.6082 14.7965L6.06681 13.046C5.76249 12.9645 5.51433 12.7444 5.39712 12.452L4.21926 9.51373C4.10221 9.22174 3.85458 9.00184 3.5508 8.92013L2.87641 8.73874C2.24107 8.56786 1.61667 9.0465 1.61667 9.70442V16.2499C1.61667 16.7022 1.9203 17.0982 2.35713 17.2156L4.28334 17.7333L13.1333 20.1166Z" stroke="#A9A9A9" stroke-width="1.7"/>
</svg>
