<svg width="35" height="26" viewBox="0 0 35 26" fill="none" xmlns="http://www.w3.org/2000/svg">
<path d="M2.99999 22C2.99999 21.4477 3.44771 21 3.99999 21H32C32.5523 21 33 21.4477 33 22V23.3333C33 23.8856 32.5523 24.3333 32 24.3333H4C3.44771 24.3333 2.99999 23.8856 2.99999 23.3333V22ZM33.8483 5.21167C33.6235 4.53649 33.1397 3.97826 32.5034 3.65977C31.867 3.34128 31.1302 3.2886 30.455 3.51333L23.3359 5.88794C23.1186 5.96044 22.8829 5.9561 22.6684 5.87565L10.075 1.15311C9.8146 1.05548 9.52534 1.07066 9.27663 1.19502L7.87459 1.89604C7.18782 2.23942 7.12823 3.1966 7.7671 3.62251L14.8996 8.37748C15.5384 8.8034 15.4788 9.76058 14.7921 10.104L10.1139 12.4431C9.83235 12.5838 9.50098 12.5838 9.21945 12.4431L3.64466 9.65567C3.25967 9.46317 2.7947 9.53863 2.49034 9.84299L2.04044 10.2929C1.64991 10.6834 1.64991 11.3166 2.04044 11.7071L7.54468 17.2114C7.82197 17.4886 8.23573 17.5783 8.60291 17.4406L32.245 8.575C32.8955 8.33079 33.426 7.84391 33.725 7.2167C34.024 6.58949 34.0682 5.87079 33.8483 5.21167Z" stroke="#A9A9A9" stroke-width="1.7"/>
</svg>
