<svg width="33" height="31" viewBox="0 0 33 31" fill="none" xmlns="http://www.w3.org/2000/svg">
<path d="M14.7979 1.22486C14.8261 1.09461 14.8284 0.960048 14.8044 0.828926C14.7805 0.697805 14.7309 0.572715 14.6584 0.460864C14.5859 0.349013 14.492 0.252611 14.382 0.17721C14.2721 0.101809 14.1484 0.0489003 14.0179 0.0215309C13.8875 -0.00583855 13.7529 -0.00712754 13.622 0.0177381C13.491 0.0426038 13.3663 0.0931327 13.2549 0.166414C13.1436 0.239696 13.0479 0.334282 12.9732 0.444724C12.8986 0.555166 12.8466 0.679281 12.8201 0.80992L11.155 8.7639H2.35763C2.08966 8.7639 1.83265 8.87036 1.64316 9.05985C1.45367 9.24934 1.34722 9.50634 1.34722 9.77432C1.34722 10.0423 1.45367 10.2993 1.64316 10.4888C1.83265 10.6783 2.08966 10.7847 2.35763 10.7847H10.7319L8.89973 19.5417H1.01041C0.742436 19.5417 0.485433 19.6481 0.295943 19.8376C0.106454 20.0271 0 20.2841 0 20.5521C0 20.8201 0.106454 21.0771 0.295943 21.2665C0.485433 21.456 0.742436 21.5625 1.01041 21.5625H8.4767L6.75765 29.7751C6.72936 29.9054 6.72713 30.04 6.75107 30.1711C6.77501 30.3022 6.82466 30.4273 6.89715 30.5391C6.96964 30.651 7.06355 30.7474 7.17346 30.8228C7.28338 30.8982 7.40712 30.9511 7.53757 30.9785C7.66802 31.0058 7.8026 31.0071 7.93354 30.9823C8.06449 30.9574 8.18923 30.9069 8.30057 30.8336C8.4119 30.7603 8.50764 30.6657 8.58226 30.5553C8.65689 30.4448 8.70892 30.3207 8.73537 30.1901L10.5406 21.5625H19.2545L17.5354 29.7751C17.4825 30.0366 17.5351 30.3083 17.6817 30.5312C17.8284 30.754 18.0572 30.9097 18.3183 30.9645C18.5793 31.0193 18.8514 30.9686 19.0753 30.8235C19.2991 30.6785 19.4565 30.4507 19.5131 30.1901L21.3184 21.5625H29.9756C30.2436 21.5625 30.5006 21.456 30.6901 21.2665C30.8796 21.0771 30.986 20.8201 30.986 20.5521C30.986 20.2841 30.8796 20.0271 30.6901 19.8376C30.5006 19.6481 30.2436 19.5417 29.9756 19.5417H21.7414L23.5736 10.7847H31.3229C31.5908 10.7847 31.8478 10.6783 32.0373 10.4888C32.2268 10.2993 32.3333 10.0423 32.3333 9.77432C32.3333 9.50634 32.2268 9.24934 32.0373 9.05985C31.8478 8.87036 31.5908 8.7639 31.3229 8.7639H23.998L25.5756 1.22486C25.6039 1.09461 25.6061 0.960048 25.5822 0.828926C25.5583 0.697805 25.5086 0.572715 25.4361 0.460864C25.3636 0.349013 25.2697 0.252611 25.1598 0.17721C25.0499 0.101809 24.9261 0.0489003 24.7957 0.0215309C24.6652 -0.00583855 24.5307 -0.00712754 24.3997 0.0177381C24.2688 0.0426038 24.144 0.0931327 24.0327 0.166414C23.9214 0.239696 23.8256 0.334282 23.751 0.444724C23.6764 0.555166 23.6243 0.679281 23.5979 0.80992L21.9327 8.7639H13.2203L14.7979 1.22486ZM19.6775 19.5417H10.9637L12.7959 10.7847H21.5097L19.6775 19.5417Z" fill="#A9A9A9"/>
</svg>
