<svg width="26" height="24" viewBox="0 0 26 24" fill="none" xmlns="http://www.w3.org/2000/svg">
<path fill-rule="evenodd" clip-rule="evenodd" d="M9.23334 2.0625C8.224 2.0625 7.39584 2.89066 7.39584 3.9V12.9375H18.2708V3.9C18.2708 2.89066 17.4427 2.0625 16.4333 2.0625H9.23334ZM6.27084 3.9C6.27084 2.26934 7.60268 0.9375 9.23334 0.9375H16.4333C18.064 0.9375 19.3958 2.26934 19.3958 3.9V14.0625H6.27084V3.9ZM0.270844 9.3375H4.99584V14.0625H0.270844V9.3375ZM1.39584 10.4625V12.9375H3.87084V10.4625H1.39584ZM20.6708 9.3375H25.3958V14.0625H20.6708V9.3375ZM21.7958 10.4625V12.9375H24.2708V10.4625H21.7958ZM2.67084 15.3375H22.9958V23.6625H18.2708V20.0625H7.39584V23.6625H2.67084V15.3375ZM3.79584 16.4625V22.5375H6.27084V18.9375H19.3958V22.5375H21.8708V16.4625H3.79584Z" fill="#050A30"/>
</svg>
