<svg width="34" height="31" viewBox="0 0 34 31" fill="none" xmlns="http://www.w3.org/2000/svg">
<path fill-rule="evenodd" clip-rule="evenodd" d="M12.2 1.75C10.8542 1.75 9.75 2.85421 9.75 4.2V16.25H24.25V4.2C24.25 2.85421 23.1458 1.75 21.8 1.75H12.2ZM8.25 4.2C8.25 2.02579 10.0258 0.25 12.2 0.25H21.8C23.9742 0.25 25.75 2.02579 25.75 4.2V17.75H8.25V4.2ZM0.25 11.45H6.55V17.75H0.25V11.45ZM1.75 12.95V16.25H5.05V12.95H1.75ZM27.45 11.45H33.75V17.75H27.45V11.45ZM28.95 12.95V16.25H32.25V12.95H28.95ZM3.45 19.45H30.55V30.55H24.25V25.75H9.75V30.55H3.45V19.45ZM4.95 20.95V29.05H8.25V24.25H25.75V29.05H29.05V20.95H4.95Z" fill="#FFFFFF"/>
</svg>
