<svg width="16" height="16" viewBox="0 0 16 16" fill="none" xmlns="http://www.w3.org/2000/svg">
<path d="M9.99822 1.3577C9.88715 1.24677 9.7366 1.18446 9.57962 1.18446C9.42265 1.18446 9.27209 1.24677 9.16102 1.3577L1.3577 9.16102C1.24677 9.27209 1.18446 9.42265 1.18446 9.57962C1.18446 9.7366 1.24677 9.88715 1.3577 9.99822L2.20201 10.8417C2.61483 10.6111 3.09165 10.5215 3.56004 10.5865C4.02843 10.6515 4.4628 10.8677 4.79718 11.202C5.13156 11.5364 5.34767 11.9708 5.4127 12.4392C5.47773 12.9076 5.38812 13.3844 5.15747 13.7972L6.00178 14.6423C6.05679 14.6973 6.12211 14.741 6.194 14.7708C6.26589 14.8006 6.34295 14.8159 6.42078 14.8159C6.4986 14.8159 6.57566 14.8006 6.64755 14.7708C6.71944 14.741 6.78476 14.6973 6.83977 14.6423L14.6423 6.83977C14.7532 6.7287 14.8155 6.57815 14.8155 6.42117C14.8155 6.2642 14.7532 6.11364 14.6423 6.00257L13.7972 5.15668C13.3844 5.38733 12.9076 5.47694 12.4392 5.41191C11.9708 5.34688 11.5364 5.13077 11.202 4.79639C10.8677 4.46201 10.6515 4.02764 10.5865 3.55925C10.5215 3.09086 10.6111 2.61404 10.8417 2.20122L9.99822 1.3577ZM8.32382 0.5205C8.48884 0.355481 8.68474 0.224581 8.90035 0.135274C9.11595 0.0459661 9.34704 0 9.58041 0C9.81378 0 10.0449 0.0459661 10.2605 0.135274C10.4761 0.224581 10.672 0.355481 10.837 0.5205L11.7619 1.44616C12.1655 1.84896 12.0936 2.41525 11.8898 2.75724C11.7778 2.94589 11.7318 3.16648 11.7591 3.38417C11.7864 3.60186 11.8855 3.80426 12.0406 3.95939C12.1957 4.11453 12.3981 4.21357 12.6158 4.24088C12.8335 4.26819 13.0541 4.2222 13.2428 4.11019C13.5847 3.90721 14.151 3.83454 14.5538 4.23814L15.4795 5.16458C15.6445 5.3296 15.7754 5.5255 15.8647 5.74111C15.954 5.95671 16 6.1878 16 6.42117C16 6.65454 15.954 6.88563 15.8647 7.10123C15.7754 7.31684 15.6445 7.51274 15.4795 7.67776L7.67776 15.4795C7.51274 15.6445 7.31684 15.7754 7.10123 15.8647C6.88563 15.954 6.65454 16 6.42117 16C6.1878 16 5.95671 15.954 5.74111 15.8647C5.5255 15.7754 5.3296 15.6445 5.16458 15.4795L4.23893 14.5546C3.83612 14.1518 3.90721 13.5847 4.11098 13.2435C4.22299 13.0549 4.26898 12.8343 4.24167 12.6166C4.21436 12.3989 4.11532 12.1965 3.96018 12.0414C3.80505 11.8863 3.60265 11.7872 3.38496 11.7599C3.16727 11.7326 2.94668 11.7786 2.75803 11.8906C2.41604 12.0936 1.84975 12.1655 1.44695 11.7619L0.5205 10.8362C0.355481 10.6712 0.224581 10.4753 0.135274 10.2597C0.0459661 10.0441 0 9.81299 0 9.57962C0 9.34625 0.0459661 9.11516 0.135274 8.89956C0.224581 8.68395 0.355481 8.48805 0.5205 8.32303L8.32382 0.5205Z" fill="#050A30"/>
</svg>
